<svg width="60" height="60" viewBox="0 0 60 60" fill="none" xmlns="http://www.w3.org/2000/svg">
<circle cx="30" cy="30" r="28.5" stroke="#669834" stroke-width="3"/>
<path d="M37.241 38.296C37.829 38.296 38.277 38.492 38.585 38.884C38.893 39.276 39.047 39.766 39.047 40.354C39.047 41.082 38.809 41.74 38.333 42.328C37.885 42.888 37.269 43.168 36.485 43.168C35.141 43.168 33.139 43.07 30.479 42.874C29.947 42.846 28.967 42.79 27.539 42.706C26.111 42.622 24.991 42.58 24.179 42.58C23.815 42.58 23.283 42.706 22.583 42.958C22.443 42.986 22.163 43.056 21.743 43.168C21.351 43.28 21.015 43.336 20.735 43.336C20.287 43.336 19.909 43.14 19.601 42.748C19.321 42.328 19.181 41.712 19.181 40.9C19.181 40.004 19.391 39.318 19.811 38.842C20.231 38.338 20.889 37.89 21.785 37.498C23.689 36.658 25.481 35.594 27.161 34.306C28.869 32.99 30.227 31.576 31.235 30.064C32.271 28.552 32.789 27.11 32.789 25.738C32.789 24.646 32.537 23.848 32.033 23.344C31.557 22.812 30.787 22.546 29.723 22.546C28.491 22.546 27.497 22.882 26.741 23.554C26.013 24.226 25.649 25.164 25.649 26.368C25.649 28.02 24.823 28.846 23.171 28.846C22.387 28.846 21.771 28.622 21.323 28.174C20.903 27.726 20.693 27.082 20.693 26.242C20.693 24.842 21.057 23.554 21.785 22.378C22.513 21.202 23.605 20.264 25.061 19.564C26.517 18.836 28.295 18.472 30.395 18.472C32.915 18.472 34.889 19.102 36.317 20.362C37.745 21.622 38.459 23.372 38.459 25.612C38.459 27.74 37.521 29.966 35.645 32.29C33.797 34.614 31.123 36.672 27.623 38.464L37.241 38.296Z" fill="#669834"/>
</svg>
