<svg width="60" height="60" viewBox="0 0 60 60" fill="none" xmlns="http://www.w3.org/2000/svg">
<circle cx="30" cy="30" r="28.5" stroke="#669834" stroke-width="3"/>
<path d="M32.9998 31.03C34.4278 31.226 35.6178 31.814 36.5698 32.794C37.5498 33.774 38.0398 35.006 38.0398 36.49C38.0398 37.918 37.6058 39.136 36.7378 40.144C35.8698 41.152 34.6938 41.922 33.2098 42.454C31.7538 42.958 30.1578 43.21 28.4218 43.21C25.3698 43.21 23.0738 42.678 21.5338 41.614C20.0218 40.55 19.2658 39.22 19.2658 37.624C19.2658 36.7 19.4898 35.986 19.9378 35.482C20.3858 34.95 20.9878 34.684 21.7438 34.684C22.3878 34.684 22.8638 34.852 23.1718 35.188C23.5078 35.496 23.7878 36.042 24.0118 36.826C24.2078 37.582 24.6138 38.156 25.2298 38.548C25.8458 38.94 26.7978 39.136 28.0858 39.136C29.3178 39.136 30.3258 38.912 31.1098 38.464C31.9218 37.988 32.3278 37.274 32.3278 36.322C32.3278 35.342 31.9498 34.628 31.1938 34.18C30.4378 33.704 29.2618 33.438 27.6658 33.382C27.0778 33.354 26.6298 33.158 26.3218 32.794C26.0418 32.402 25.9018 31.94 25.9018 31.408C25.9018 30.736 26.0138 30.26 26.2378 29.98C26.4898 29.672 26.9098 29.462 27.4978 29.35C29.3458 29.07 30.6758 28.538 31.4878 27.754C32.3278 26.942 32.7478 25.976 32.7478 24.856C32.7478 23.316 31.6838 22.546 29.5558 22.546C27.2038 22.546 25.8178 23.47 25.3978 25.318C25.2018 26.074 24.9078 26.62 24.5158 26.956C24.1518 27.264 23.6338 27.418 22.9618 27.418C22.2058 27.418 21.6178 27.208 21.1978 26.788C20.8058 26.34 20.6098 25.752 20.6098 25.024C20.6098 23.904 21.0018 22.84 21.7858 21.832C22.5698 20.824 23.6758 20.012 25.1038 19.396C26.5598 18.78 28.2538 18.472 30.1858 18.472C32.8738 18.472 34.9318 18.99 36.3598 20.026C37.7878 21.062 38.5018 22.602 38.5018 24.646C38.5018 25.99 37.9838 27.25 36.9478 28.426C35.9398 29.574 34.6238 30.442 32.9998 31.03Z" fill="#669834"/>
</svg>
