<svg width="60" height="60" viewBox="0 0 60 60" fill="none" xmlns="http://www.w3.org/2000/svg">
<circle cx="30" cy="30" r="28.5" stroke="#669834" stroke-width="3"/>
<path d="M29.3365 43.21C28.6365 43.21 28.0205 43 27.4885 42.58C26.9565 42.16 26.6905 41.502 26.6905 40.606L26.7325 40.144C27.0405 37.26 27.4045 34.264 27.8245 31.156C28.2725 28.02 28.6505 25.612 28.9585 23.932L25.6825 24.856L25.1785 24.94C24.6465 24.94 24.2265 24.73 23.9185 24.31C23.6105 23.89 23.4565 23.414 23.4565 22.882L23.4985 22.504C23.5545 21.972 23.7225 21.538 24.0025 21.202C24.2825 20.866 24.8145 20.53 25.5985 20.194C26.4105 19.858 27.6145 19.494 29.2105 19.102L30.9745 18.682C31.6185 18.542 32.1505 18.472 32.5705 18.472C33.3825 18.472 33.9845 18.682 34.3765 19.102C34.7965 19.522 35.0065 20.11 35.0065 20.866C35.0065 21.202 34.9645 21.566 34.8805 21.958C34.4325 24.142 33.5785 30.358 32.3185 40.606C32.0945 42.342 31.1005 43.21 29.3365 43.21Z" fill="#669834"/>
</svg>
