<svg width="81" height="80" viewBox="0 0 81 80" fill="none" xmlns="http://www.w3.org/2000/svg">
<path d="M80.0436 51.104L78.3002 37.0007C78.2476 34.0532 77.322 31.1874 75.6405 28.766C73.9589 26.3446 71.597 24.4763 68.8536 23.3974L55.6669 17.9274C52.853 16.8095 49.785 16.4903 46.8013 17.005C43.8175 17.5196 41.0337 18.8481 38.7569 20.844L26.5069 29.9307C23.1729 32.9625 20.5591 36.7015 18.8569 40.874C18.8569 40.874 17.4302 43.4407 17.3736 43.5774C16.3505 46.3731 16.4545 49.457 17.6636 52.1774C18.2271 53.5044 19.0499 54.7056 20.0836 55.7107L19.9736 55.984C19.1054 58.0174 19.0806 60.3123 19.9045 62.3639C20.7284 64.4156 22.3336 66.0559 24.3669 66.924C26.4002 67.7922 28.6951 67.817 30.7468 66.9931C32.7984 66.1692 34.4387 64.564 35.3069 62.5307L51.3069 68.9474C50.6117 71.0015 50.7446 73.2457 51.6774 75.2034C52.6101 77.1611 54.2693 78.678 56.3025 79.4321C58.3357 80.1862 60.5828 80.1181 62.5666 79.2421C64.5503 78.3661 66.1145 76.7514 66.9269 74.7407L66.9735 74.624C69.0409 74.7042 71.0823 74.1426 72.8178 73.0165C74.5534 71.8903 75.8979 70.2547 76.6669 68.334L78.0402 64.8674C79.7721 60.4986 80.4582 55.7853 80.0436 51.104ZM42.9669 26.0007C44.3288 24.7711 46.005 23.9432 47.8092 23.6089C49.6133 23.2747 51.4749 23.4472 53.1869 24.1074L66.3702 29.574C67.9677 30.219 69.3305 31.3357 70.2768 32.7752C71.2232 34.2147 71.7081 35.9085 71.6669 37.6307C71.6669 37.6707 73.0636 48.924 73.0636 48.924L33.4269 33.0807L42.9669 26.0007ZM27.1036 60.6107H27.0702L27.1369 60.6374L27.1036 60.6107ZM58.5336 73.214H58.5036L58.5602 73.234L58.5336 73.214ZM70.4736 65.8807C70.1494 66.6961 69.5168 67.3507 68.7131 67.7027C67.9093 68.0546 66.9992 68.0755 66.1802 67.7607L25.4502 51.3974C24.6746 51.0119 24.0776 50.3421 23.7836 49.5274C23.3093 48.4813 23.2138 47.3028 23.5136 46.194C23.5136 46.194 24.9169 43.6707 24.9702 43.5274C25.7474 41.586 26.7738 39.754 28.0236 38.0774L33.4236 40.2374L32.3402 42.904C32.0078 43.7236 32.0146 44.6416 32.359 45.4561C32.7035 46.2706 33.3574 46.915 34.1769 47.2474C34.9964 47.5798 35.9144 47.573 36.7289 47.2286C37.5435 46.8841 38.1878 46.2302 38.5202 45.4107L39.6136 42.7107L61.7736 51.5674L60.6736 54.2774C60.509 54.6832 60.4259 55.1174 60.4291 55.5553C60.4324 55.9932 60.5218 56.4261 60.6924 56.8294C60.8629 57.2327 61.1112 57.5985 61.4231 57.9059C61.735 58.2132 62.1044 58.4561 62.5102 58.6207C63.3297 58.9531 64.2477 58.9464 65.0623 58.6019C65.4656 58.4314 65.8314 58.183 66.1387 57.8711C66.4461 57.5592 66.689 57.1898 66.8536 56.784L67.9636 54.044L73.3702 56.204C73.1489 58.3203 72.6386 60.3963 71.8536 62.374L70.4736 65.8807ZM13.3336 36.6674C13.3336 37.5514 12.9824 38.3993 12.3572 39.0244C11.7321 39.6495 10.8843 40.0007 10.0002 40.0007H3.33355C2.70017 40.0005 2.07997 39.8198 1.54557 39.4798C1.01116 39.1398 0.584687 38.6546 0.316073 38.081C0.0474602 37.5074 -0.0521696 36.8692 0.0288505 36.241C0.109871 35.6128 0.368187 35.0207 0.773551 34.534L6.07688 28.1707C6.42958 27.7505 6.62292 27.2194 6.62292 26.6707C6.62292 26.1221 6.42958 25.591 6.07688 25.1707L0.773551 18.8007C0.368187 18.314 0.109871 17.7219 0.0288505 17.0938C-0.0521696 16.4656 0.0474602 15.8273 0.316073 15.2537C0.584687 14.6801 1.01116 14.1949 1.54557 13.8549C2.07997 13.515 2.70017 13.3343 3.33355 13.334H11.0002C11.6177 13.3297 12.2087 13.0824 12.6453 12.6458C13.082 12.2092 13.3292 11.6182 13.3336 11.0007V3.33404C13.3338 2.70066 13.5145 2.08045 13.8545 1.54605C14.1944 1.01165 14.6796 0.585175 15.2532 0.316562C15.8268 0.0479485 16.4651 -0.0516813 17.0933 0.0293388C17.7215 0.110359 18.3135 0.368675 18.8002 0.774039L25.1636 6.07737C25.5838 6.43007 26.1149 6.6234 26.6636 6.6234C27.2122 6.6234 27.7433 6.43007 28.1636 6.07737L34.5336 0.774039C35.0202 0.368675 35.6123 0.110359 36.2405 0.0293388C36.8687 -0.0516813 37.5069 0.0479485 38.0805 0.316562C38.6541 0.585175 39.1393 1.01165 39.4793 1.54605C39.8193 2.08045 40 2.70066 40.0002 3.33404V10.0007C40.0017 10.8488 39.6799 11.6655 39.1003 12.2847C38.5207 12.9038 37.727 13.2787 36.8806 13.3331C36.0343 13.3875 35.1991 13.1172 34.545 12.5774C33.891 12.0375 33.4673 11.2687 33.3602 10.4274L32.4369 11.1974C30.8182 12.5496 28.776 13.2903 26.6669 13.2903C24.5577 13.2903 22.5156 12.5496 20.8969 11.1974L20.0002 10.4507V11.0007C19.9941 13.3858 19.0439 15.6714 17.3574 17.3579C15.6709 19.0444 13.3853 19.9945 11.0002 20.0007H10.4502L11.1969 20.8974C12.5491 22.516 13.2899 24.5582 13.2899 26.6674C13.2899 28.7765 12.5491 30.8187 11.1969 32.4374L10.4269 33.3607C11.2305 33.4644 11.9688 33.8573 12.5038 34.4659C13.0388 35.0745 13.3337 35.8571 13.3336 36.6674Z" fill="#669834"/>
</svg>
