<svg width="80" height="80" viewBox="0 0 80 80" fill="none" xmlns="http://www.w3.org/2000/svg">
<path d="M78.0467 13.3333L65.69 0.976667L60.9767 5.69L66.6667 11.38V20C66.6667 21.7681 67.369 23.4638 68.6193 24.714C69.8695 25.9643 71.5652 26.6667 73.3333 26.6667V60C73.3333 60.8841 72.9821 61.7319 72.357 62.357C71.7319 62.9821 70.8841 63.3333 70 63.3333C69.1159 63.3333 68.2681 62.9821 67.643 62.357C67.0179 61.7319 66.6667 60.8841 66.6667 60V56.6667C66.6667 54.0145 65.6131 51.471 63.7377 49.5956C61.8624 47.7202 59.3188 46.6667 56.6667 46.6667H53.3333V10C53.3333 7.34784 52.2798 4.8043 50.4044 2.92893C48.529 1.05357 45.9855 0 43.3333 0L10 0C7.34784 0 4.8043 1.05357 2.92893 2.92893C1.05357 4.8043 0 7.34784 0 10L0 80H53.3333V53.3333H56.6667C57.5507 53.3333 58.3986 53.6845 59.0237 54.3096C59.6488 54.9348 60 55.7826 60 56.6667V60C60 62.6522 61.0536 65.1957 62.9289 67.0711C64.8043 68.9464 67.3478 70 70 70C72.6522 70 75.1957 68.9464 77.0711 67.0711C78.9464 65.1957 80 62.6522 80 60V18.0467C79.9956 16.2795 79.2936 14.5856 78.0467 13.3333ZM10 6.66667H43.3333C44.2174 6.66667 45.0652 7.01786 45.6904 7.64298C46.3155 8.2681 46.6667 9.11594 46.6667 10V30H6.66667V10C6.66667 9.11594 7.01786 8.2681 7.64298 7.64298C8.2681 7.01786 9.11594 6.66667 10 6.66667ZM6.66667 73.3333V36.6667H46.6667V73.3333H6.66667Z" fill="#669834"/>
</svg>
