<svg width="80" height="80" viewBox="0 0 80 80" fill="none" xmlns="http://www.w3.org/2000/svg">
<path d="M40 0C32.0888 0 24.3552 2.34596 17.7772 6.74122C11.1992 11.1365 6.07234 17.3836 3.04484 24.6927C0.0173316 32.0017 -0.774802 40.0444 0.768607 47.8036C2.31202 55.5629 6.12165 62.6902 11.7157 68.2843C17.3098 73.8784 24.4372 77.688 32.1964 79.2314C39.9556 80.7748 47.9983 79.9827 55.3074 76.9552C62.6164 73.9277 68.8635 68.8008 73.2588 62.2228C77.6541 55.6448 80 47.9113 80 40C79.9885 29.3949 75.7706 19.2274 68.2716 11.7284C60.7727 4.22943 50.6052 0.0114703 40 0ZM40 73.3333C33.4073 73.3333 26.9626 71.3784 21.481 67.7157C15.9994 64.0529 11.727 58.847 9.20403 52.7561C6.68111 46.6652 6.021 39.963 7.30718 33.497C8.59335 27.031 11.768 21.0915 16.4298 16.4298C21.0915 11.768 27.031 8.59333 33.497 7.30716C39.963 6.02098 46.6653 6.68109 52.7561 9.20402C58.847 11.7269 64.053 15.9994 67.7157 21.481C71.3784 26.9626 73.3334 33.4073 73.3334 40C73.3236 48.8376 69.8086 57.3104 63.5595 63.5595C57.3104 69.8086 48.8376 73.3236 40 73.3333Z" fill="#669834"/>
<path d="M40 20C39.1159 20 38.2681 20.3512 37.643 20.9763C37.0179 21.6014 36.6667 22.4493 36.6667 23.3333V37.75L25.43 44.79C24.6786 45.2594 24.1444 46.0082 23.945 46.8714C23.7455 47.7347 23.8972 48.6419 24.3667 49.3933C24.8361 50.1448 25.5848 50.679 26.4481 50.8784C27.3114 51.0778 28.2185 50.9261 28.97 50.4567L41.77 42.4567C42.2536 42.1537 42.6513 41.7316 42.9251 41.2308C43.1988 40.73 43.3394 40.1673 43.3333 39.5967V23.3333C43.3333 22.4493 42.9821 21.6014 42.357 20.9763C41.7319 20.3512 40.8841 20 40 20Z" fill="#669834"/>
</svg>
