<svg width="199" height="182" viewBox="0 0 199 182" fill="none" xmlns="http://www.w3.org/2000/svg">
<ellipse cx="152.5" cy="136.5" rx="46.5" ry="45.5" fill="#347DD2" fill-opacity="0.33"/>
<ellipse cx="33" cy="32.5" rx="33" ry="32.5" fill="#347DD2" fill-opacity="0.33"/>
<ellipse cx="89.5" cy="84" rx="79.5" ry="78" fill="#347DD2" fill-opacity="0.33"/>
<path d="M89.9977 61.5042L88.5 60.7469L87.0023 61.5042C83.2355 63.4059 79.8016 65.8912 76.831 68.8654C81.1522 71.0877 85.0904 73.9702 88.5 77.4065C91.9086 73.9705 95.8457 71.088 100.166 68.8654C97.1961 65.8915 93.7633 63.4063 89.9977 61.5042ZM84.2175 82.3854C78.4771 76.4105 70.9653 72.3869 62.7625 70.8934L58.875 70.1849V96.2499C58.875 102.12 60.6634 107.855 64.0077 112.708C67.3519 117.562 72.0975 121.31 77.6276 123.465C76.103 118.877 75.3285 114.079 75.3333 109.25C75.3333 99.2009 78.6283 89.9124 84.2175 82.3854ZM118.125 70.1882L114.241 70.8934C95.847 74.2279 81.9167 90.1302 81.9167 109.25C81.9167 114.242 82.8713 119.023 84.606 123.42L85.396 125.419C86.4295 125.451 87.4664 125.5 88.5 125.5C96.357 125.5 103.892 122.418 109.448 116.933C115.004 111.447 118.125 104.008 118.125 96.2499V70.1882Z" fill="black"/>
</svg>
