<svg width="32" height="33" viewBox="0 0 32 33" fill="none" xmlns="http://www.w3.org/2000/svg">
<g clip-path="url(#clip0_7_4)">
<path d="M9.24735 19.1679V15.2331L6.77316 16.5775L2.81445 9.75704L11.5236 4.77289H13.2061C13.5579 5.82218 13.9758 6.74032 14.4597 7.52729C14.9435 8.31426 15.8452 8.70775 17.1648 8.70775C18.4843 8.70775 19.386 8.31426 19.8699 7.52729C20.3537 6.74032 20.7716 5.82218 21.1235 4.77289H22.8059L31.4821 9.78983L27.5564 16.5775L25.0822 15.2331V21.5288L23.0039 23.3323C22.8499 23.4635 22.674 23.5675 22.476 23.6445C22.2781 23.7214 22.0802 23.7595 21.8822 23.7586C21.7503 23.7586 21.5963 23.7149 21.4204 23.6274C21.2444 23.54 21.0685 23.4307 20.8926 23.2995L17.3957 20.3156C16.6919 19.7035 15.9002 19.2554 15.0205 18.9712C14.1408 18.687 13.25 18.5449 12.3483 18.5449C11.8205 18.5449 11.298 18.5943 10.7807 18.6931C10.2634 18.7919 9.75231 18.9502 9.24735 19.1679ZM7.46594 26.2507L5.7505 24.2504L8.62056 21.8239C9.12639 21.3867 9.70393 21.0532 10.3532 20.8232C11.0024 20.5932 11.6784 20.4787 12.3813 20.4795C13.0851 20.4795 13.7559 20.5945 14.3937 20.8245C15.0315 21.0545 15.6033 21.3876 16.1091 21.8239L19.9359 25.0702C20.1998 25.2888 20.5134 25.4584 20.8767 25.5791C21.24 25.6998 21.6082 25.7597 21.9812 25.7588C22.3771 25.7588 22.7457 25.7042 23.087 25.5949C23.4283 25.4856 23.7305 25.3107 23.9935 25.0702L26.8636 22.6109L28.579 24.6439L25.709 27.0704C25.2031 27.5076 24.6313 27.8355 23.9935 28.0541C23.3558 28.2727 22.685 28.382 21.9812 28.382C21.2774 28.382 20.6014 28.2727 19.953 28.0541C19.3047 27.8355 18.7271 27.5076 18.2204 27.0704L14.3937 23.8242C14.1298 23.6056 13.8276 23.4364 13.4871 23.3166C13.1467 23.1968 12.7781 23.1364 12.3813 23.1356C12.0075 23.1356 11.6393 23.1959 11.2769 23.3166C10.9144 23.4372 10.6008 23.6064 10.336 23.8242L7.46594 26.2507Z" fill="#669934"/>
</g>
<defs>
<clipPath id="clip0_7_4">
<rect width="31.6697" height="31.4789" fill="white" transform="translate(0.330078 0.838013)"/>
</clipPath>
</defs>
</svg>
