<svg width="166" height="162" viewBox="0 0 166 162" fill="none" xmlns="http://www.w3.org/2000/svg">
<ellipse cx="82.5688" cy="80.9524" rx="82.5688" ry="80.9524" fill="#347DD2" fill-opacity="0.33"/>
<path d="M95.3752 48.3334C103.774 48.3334 111.828 51.775 117.767 57.9012C123.706 64.0274 127.042 72.3363 127.042 81C127.042 89.6638 123.706 97.9727 117.767 104.099C111.828 110.225 103.774 113.667 95.3752 113.667C86.9766 113.667 78.9221 110.225 72.9834 104.099C67.0448 97.9727 63.7085 89.6638 63.7085 81C63.7085 72.3363 67.0448 64.0274 72.9834 57.9012C78.9221 51.775 86.9766 48.3334 95.3752 48.3334ZM95.3752 56.5C89.0763 56.5 83.0354 59.0813 78.5814 63.6759C74.1274 68.2706 71.6252 74.5022 71.6252 81C71.6252 87.4978 74.1274 93.7295 78.5814 98.3242C83.0354 102.919 89.0763 105.5 95.3752 105.5C101.674 105.5 107.715 102.919 112.169 98.3242C116.623 93.7295 119.125 87.4978 119.125 81C119.125 74.5022 116.623 68.2706 112.169 63.6759C107.715 59.0813 101.674 56.5 95.3752 56.5ZM91.4168 64.6667H97.3543V80.1017L106.577 89.6159L102.381 93.9442L91.4168 82.6334V64.6667ZM43.9168 105.5C42.867 105.5 41.8602 105.07 41.1179 104.304C40.3755 103.538 39.9585 102.5 39.9585 101.417C39.9585 100.334 40.3755 99.2951 41.1179 98.5293C41.8602 97.7636 42.867 97.3334 43.9168 97.3334H59.0772C60.3043 100.233 61.8877 102.968 63.7085 105.5H43.9168ZM47.8752 85.0834C46.8253 85.0834 45.8185 84.6532 45.0762 83.8874C44.3339 83.1216 43.9168 82.083 43.9168 81C43.9168 79.9171 44.3339 78.8785 45.0762 78.1127C45.8185 77.3469 46.8253 76.9167 47.8752 76.9167H55.9897L55.7918 81L55.9897 85.0834H47.8752ZM51.8335 64.6667C50.7837 64.6667 49.7769 64.2365 49.0345 63.4707C48.2922 62.705 47.8752 61.6663 47.8752 60.5834C47.8752 59.5004 48.2922 58.4618 49.0345 57.696C49.7769 56.9302 50.7837 56.5 51.8335 56.5H63.7085C61.8877 59.0317 60.3043 61.7675 59.0772 64.6667H51.8335Z" fill="black"/>
</svg>
