    <svg width="256" height="241" viewBox="0 0 256 241" fill="none" xmlns="http://www.w3.org/2000/svg">
    <ellipse cx="64.2007" cy="62.8868" rx="63.4731" ry="62.8868" fill="#347DD2" fill-opacity="0.33"/>
    <ellipse cx="146.811" cy="132.806" rx="108.811" ry="107.806" fill="#347DD2" fill-opacity="0.33"/>
    <g clip-path="url(#clip0_248_3)">
    <path d="M105.005 121.075L111.88 109.448C114.401 105.185 118.091 102.424 122.951 101.167C127.81 99.9093 132.392 100.529 136.695 103.027L171.902 123.462L174.194 119.587C174.843 118.489 175.012 117.351 174.699 116.173C174.386 114.996 173.678 114.085 172.574 113.44L156.926 104.358C155.818 103.715 154.669 103.548 153.481 103.857C152.292 104.167 151.373 104.869 150.722 105.963L142.898 101.422C144.808 98.1921 147.573 96.109 151.191 95.1726C154.81 94.2363 158.25 94.7142 161.509 96.6063L177.157 105.689C180.417 107.581 182.52 110.32 183.465 113.905C184.41 117.49 183.927 120.898 182.018 124.128L172.851 139.631C173.959 140.274 175.109 140.442 176.3 140.134C177.491 139.825 178.409 139.123 179.054 138.026L188.221 122.523C190.131 119.293 192.895 117.21 196.514 116.273C200.133 115.337 203.572 115.815 206.832 117.707L210.744 119.978L206.161 127.729L202.249 125.459C201.14 124.815 199.992 124.648 198.804 124.958C197.615 125.268 196.696 125.97 196.045 127.064L186.878 142.567C184.968 145.797 182.204 147.88 178.585 148.816C174.966 149.753 171.527 149.275 168.267 147.383L163.684 155.134L105.005 121.075Z" fill="black"/>
    <g clip-path="url(#clip1_248_3)">
    <path d="M143.323 189.048C142.977 188.844 142.657 188.606 142.389 188.353C142.121 188.1 141.913 187.838 141.78 187.589L140.616 185.41C139.514 183.345 139.016 181.425 139.157 179.779C139.297 178.133 140.073 176.8 141.431 175.87L148.851 170.783C149.907 170.06 150.511 169.023 150.62 167.743C150.729 166.462 150.341 164.969 149.483 163.362L148.321 161.185C148.208 160.975 148.153 160.777 148.156 160.605C148.16 160.432 148.224 160.287 148.343 160.179C148.463 160.071 148.636 160.001 148.853 159.973C149.071 159.946 149.327 159.961 149.609 160.019C149.89 160.076 150.191 160.175 150.495 160.308C150.798 160.442 151.097 160.609 151.376 160.798C151.655 160.988 151.907 161.197 152.119 161.414C152.33 161.631 152.497 161.851 152.61 162.061L153.774 164.24C154.876 166.305 155.374 168.225 155.233 169.871C155.093 171.517 154.317 172.849 152.959 173.78L145.538 178.865C144.481 179.588 143.878 180.625 143.769 181.905C143.659 183.186 144.047 184.679 144.905 186.286L146.067 188.464C146.226 188.762 146.271 189.031 146.197 189.242C146.123 189.452 145.933 189.596 145.648 189.657C145.363 189.717 144.995 189.693 144.584 189.585C144.174 189.478 143.737 189.292 143.323 189.048ZM132.176 182.482C131.829 182.278 131.51 182.04 131.242 181.787C130.974 181.534 130.765 181.272 130.633 181.023L129.469 178.844C128.366 176.779 127.869 174.858 128.009 173.212C128.15 171.567 128.925 170.234 130.284 169.303L137.703 164.217C138.76 163.494 139.363 162.457 139.472 161.176C139.581 159.896 139.194 158.402 138.336 156.796L137.174 154.619C137.061 154.408 137.005 154.211 137.009 154.038C137.013 153.866 137.076 153.721 137.196 153.613C137.316 153.504 137.489 153.434 137.706 153.407C137.923 153.379 138.18 153.395 138.462 153.452C138.743 153.51 139.044 153.608 139.347 153.742C139.651 153.876 139.95 154.042 140.229 154.232C140.507 154.422 140.76 154.631 140.971 154.848C141.183 155.064 141.35 155.284 141.462 155.495L142.626 157.674C143.729 159.739 144.226 161.659 144.086 163.305C143.945 164.95 143.17 166.283 141.812 167.214L134.39 172.298C133.334 173.022 132.73 174.059 132.621 175.339C132.512 176.619 132.9 178.113 133.758 179.72L134.919 181.897C135.078 182.195 135.123 182.465 135.05 182.675C134.976 182.886 134.786 183.03 134.501 183.091C134.216 183.151 133.848 183.126 133.437 183.019C133.026 182.911 132.59 182.725 132.176 182.482ZM121.028 175.916C120.682 175.712 120.362 175.474 120.094 175.221C119.827 174.967 119.618 174.706 119.485 174.457L118.322 172.277C117.219 170.212 116.721 168.292 116.862 166.646C117.003 165 117.778 163.667 119.136 162.737L126.556 157.651C127.613 156.927 128.216 155.89 128.325 154.61C128.434 153.33 128.047 151.836 127.189 150.23L126.026 148.053C125.914 147.842 125.858 147.645 125.862 147.472C125.866 147.299 125.929 147.155 126.049 147.046C126.168 146.938 126.342 146.868 126.559 146.841C126.776 146.813 127.033 146.828 127.314 146.886C127.596 146.944 127.897 147.042 128.2 147.176C128.503 147.31 128.803 147.476 129.081 147.666C129.36 147.855 129.612 148.065 129.824 148.281C130.036 148.498 130.203 148.718 130.315 148.929L131.477 151.107C132.579 153.172 133.077 155.092 132.937 156.738C132.797 158.383 132.022 159.717 130.665 160.647L123.243 165.732C122.186 166.456 121.583 167.493 121.474 168.773C121.365 170.053 121.752 171.547 122.61 173.153L123.772 175.331C123.931 175.629 123.976 175.898 123.902 176.109C123.828 176.32 123.638 176.464 123.354 176.524C123.069 176.585 122.7 176.56 122.29 176.453C121.879 176.345 121.442 176.159 121.028 175.916ZM109.881 169.349C109.535 169.146 109.215 168.908 108.947 168.654C108.679 168.401 108.471 168.139 108.338 167.89L107.174 165.711C106.072 163.646 105.574 161.726 105.715 160.08C105.855 158.434 106.631 157.101 107.989 156.171L115.409 151.085C116.465 150.361 117.068 149.324 117.177 148.044C117.286 146.764 116.898 145.27 116.041 143.664L114.879 141.487C114.766 141.276 114.711 141.078 114.714 140.906C114.718 140.733 114.782 140.588 114.901 140.48C115.021 140.372 115.194 140.302 115.411 140.274C115.629 140.247 115.885 140.262 116.167 140.32C116.448 140.377 116.749 140.476 117.053 140.609C117.356 140.743 117.655 140.91 117.934 141.099C118.213 141.289 118.465 141.498 118.677 141.715C118.889 141.932 119.055 142.152 119.168 142.362L120.332 144.542C121.434 146.606 121.932 148.526 121.791 150.172C121.651 151.818 120.875 153.151 119.517 154.081L112.096 159.166C111.039 159.889 110.436 160.926 110.327 162.207C110.217 163.487 110.605 164.981 111.463 166.587L112.625 168.765C112.784 169.063 112.829 169.332 112.755 169.543C112.681 169.754 112.491 169.897 112.206 169.958C111.921 170.019 111.553 169.994 111.142 169.886C110.732 169.779 110.295 169.593 109.881 169.349ZM98.7337 162.783C98.387 162.579 98.0667 162.341 97.7985 162.087C97.5302 161.834 97.3213 161.572 97.1885 161.323L96.0269 159.145C94.9245 157.08 94.4267 155.159 94.5673 153.514C94.7079 151.868 95.4835 150.535 96.8418 149.604L104.261 144.518C105.318 143.795 105.921 142.758 106.03 141.478C106.139 140.198 105.751 138.704 104.893 137.098L103.732 134.92C103.619 134.709 103.563 134.512 103.567 134.339C103.571 134.167 103.634 134.022 103.754 133.914C103.996 133.695 104.451 133.637 105.02 133.753C105.588 133.87 106.224 134.15 106.787 134.533C107.35 134.916 107.793 135.371 108.021 135.796L109.184 137.975C110.287 140.04 110.784 141.96 110.644 143.606C110.503 145.251 109.728 146.584 108.37 147.515L100.948 152.6C99.8917 153.323 99.2884 154.36 99.1793 155.64C99.0701 156.921 99.4577 158.414 100.316 160.021L101.477 162.199C101.636 162.497 101.681 162.766 101.608 162.977C101.534 163.187 101.344 163.331 101.059 163.392C100.774 163.452 100.406 163.428 99.9951 163.32C99.5845 163.213 99.1477 163.027 98.7337 162.783Z" fill="black"/>
    </g>
    </g>
    <defs>
    <clipPath id="clip0_248_3">
    <rect width="108.555" height="108.064" fill="white" transform="matrix(0.86487 0.501996 -0.50898 0.860778 127.273 59.2042)"/>
    </clipPath>
    <clipPath id="clip1_248_3">
    <rect width="82.8" height="37.92" fill="white" transform="translate(99.9658 125) rotate(30.5)"/>
    </clipPath>
    </defs>
    </svg>
