<svg width="252" height="207" viewBox="0 0 252 207" fill="none" xmlns="http://www.w3.org/2000/svg">
<g clip-path="url(#clip0_178_2)">
<path d="M26.6665 63.3333V36.6666H16.6665C14.0143 36.6666 11.4708 37.7202 9.59544 39.5956C7.72007 41.4709 6.6665 44.0145 6.6665 46.6666V106.667C6.67146 107.286 6.84873 107.891 7.17843 108.415C7.50812 108.939 7.97723 109.361 8.53317 109.633C9.06877 109.877 9.65929 109.974 10.2448 109.916C10.8302 109.857 11.3897 109.645 11.8665 109.3L29.0332 96.6666H73.8332C75.0965 96.704 76.3541 96.4816 77.528 96.0131C78.7019 95.5447 79.7672 94.8403 80.6578 93.9434C81.5483 93.0466 82.2453 91.9764 82.7055 90.7993C83.1657 89.6221 83.3794 88.363 83.3332 87.1V83.3333H46.6665C41.3622 83.3333 36.2751 81.2262 32.5244 77.4754C28.7736 73.7247 26.6665 68.6376 26.6665 63.3333Z" fill="white"/>
<path d="M103.333 13.3334H46.6665C44.0143 13.3334 41.4708 14.3869 39.5954 16.2623C37.7201 18.1377 36.6665 20.6812 36.6665 23.3334V63.3334C36.6665 65.9855 37.7201 68.5291 39.5954 70.4044C41.4708 72.2798 44.0143 73.3334 46.6665 73.3334H91.8332L107.767 85.7C108.24 86.0502 108.798 86.2687 109.384 86.3331C109.969 86.3975 110.561 86.3056 111.1 86.0667C111.667 85.7965 112.146 85.3716 112.483 84.8408C112.819 84.31 112.998 83.695 113 83.0667V23.3334C113.001 20.738 111.994 18.2437 110.19 16.3776C108.386 14.5115 105.927 13.4199 103.333 13.3334Z" fill="white"/>
</g>
<g clip-path="url(#clip1_178_2)">
<path d="M158.667 150.333V123.667H148.667C146.014 123.667 143.471 124.72 141.595 126.596C139.72 128.471 138.667 131.015 138.667 133.667V193.667C138.671 194.286 138.849 194.891 139.178 195.415C139.508 195.939 139.977 196.361 140.533 196.633C141.069 196.877 141.659 196.974 142.245 196.916C142.83 196.857 143.39 196.645 143.867 196.3L161.033 183.667H205.833C207.097 183.704 208.354 183.482 209.528 183.013C210.702 182.545 211.767 181.84 212.658 180.944C213.548 180.047 214.245 178.977 214.706 177.799C215.166 176.622 215.379 175.363 215.333 174.1V170.333H178.667C173.362 170.333 168.275 168.226 164.524 164.476C160.774 160.725 158.667 155.638 158.667 150.333Z" fill="white"/>
<path d="M235.333 100.333H178.667C176.014 100.333 173.471 101.387 171.595 103.262C169.72 105.138 168.667 107.681 168.667 110.333V150.333C168.667 152.986 169.72 155.529 171.595 157.404C173.471 159.28 176.014 160.333 178.667 160.333H223.833L239.767 172.7C240.24 173.05 240.798 173.269 241.384 173.333C241.969 173.397 242.561 173.306 243.1 173.067C243.667 172.797 244.146 172.372 244.483 171.841C244.819 171.31 244.998 170.695 245 170.067V110.333C245.001 107.738 243.994 105.244 242.19 103.378C240.386 101.512 237.927 100.42 235.333 100.333Z" fill="white"/>
</g>
<defs>
<clipPath id="clip0_178_2">
<rect width="120" height="120" fill="white"/>
</clipPath>
<clipPath id="clip1_178_2">
<rect width="120" height="120" fill="white" transform="translate(132 87)"/>
</clipPath>
</defs>
</svg>
