<svg width="166" height="162" viewBox="0 0 166 162" fill="none" xmlns="http://www.w3.org/2000/svg">
<ellipse cx="82.5688" cy="80.9524" rx="82.5688" ry="80.9524" fill="#347DD2" fill-opacity="0.33"/>
<g clip-path="url(#clip0_334_58)">
<path d="M78.5113 109.306C78.5113 109.306 73.4526 109.306 73.4526 104.237C73.4526 99.1675 78.5113 83.9598 98.7463 83.9598C118.981 83.9598 124.04 99.1675 124.04 104.237C124.04 109.306 118.981 109.306 118.981 109.306H78.5113ZM98.7463 78.8905C102.771 78.8905 106.631 77.2883 109.478 74.4363C112.324 71.5843 113.923 67.7161 113.923 63.6828C113.923 59.6495 112.324 55.7813 109.478 52.9293C106.631 50.0773 102.771 48.4751 98.7463 48.4751C94.7214 48.4751 90.8612 50.0773 88.0151 52.9293C85.169 55.7813 83.5701 59.6495 83.5701 63.6828C83.5701 67.7161 85.169 71.5843 88.0151 74.4363C90.8612 77.2883 94.7214 78.8905 98.7463 78.8905ZM69.4865 109.306C68.737 107.723 68.363 105.988 68.3938 104.237C68.3938 97.3679 71.8338 90.2963 78.1876 85.3792C75.0167 84.3979 71.7123 83.919 68.3938 83.9598C48.1588 83.9598 43.1001 99.1675 43.1001 104.237C43.1001 109.306 48.1588 109.306 48.1588 109.306H69.4865ZM65.8645 78.8905C69.2186 78.8905 72.4354 77.5553 74.8072 75.1787C77.1789 72.802 78.5113 69.5785 78.5113 66.2174C78.5113 62.8563 77.1789 59.6329 74.8072 57.2562C72.4354 54.8795 69.2186 53.5443 65.8645 53.5443C62.5103 53.5443 59.2935 54.8795 56.9218 57.2562C54.55 59.6329 53.2176 62.8563 53.2176 66.2174C53.2176 69.5785 54.55 72.802 56.9218 75.1787C59.2935 77.5553 62.5103 78.8905 65.8645 78.8905Z" fill="black"/>
</g>
<defs>
<clipPath id="clip0_334_58">
<rect width="80.94" height="81.1078" fill="white" transform="translate(43.1001 38.3367)"/>
</clipPath>
</defs>
</svg>
