<svg width="200" height="170" viewBox="0 0 200 170" fill="none" xmlns="http://www.w3.org/2000/svg">
<ellipse cx="154.128" cy="125.027" rx="45.8716" ry="44.9735" fill="#347DD2" fill-opacity="0.33"/>
<ellipse cx="82.5688" cy="80.9524" rx="82.5688" ry="80.9524" fill="#347DD2" fill-opacity="0.33"/>
<path d="M94.7915 77.0805C97.913 80.1496 99.6658 84.307 99.6658 88.6413C99.6658 92.9755 97.913 97.1329 94.7915 100.202C91.661 103.262 87.4206 104.981 82.9998 104.981C78.5791 104.981 74.3386 103.262 71.2082 100.202L94.7915 77.0805ZM57.9998 39.6201H108C110.21 39.6201 112.33 40.4809 113.892 42.0131C115.455 43.5453 116.333 45.6234 116.333 47.7903V113.152C116.333 115.319 115.455 117.397 113.892 118.929C112.33 120.461 110.21 121.322 108 121.322H57.9998C55.7897 121.322 53.6701 120.461 52.1073 118.929C50.5445 117.397 49.6665 115.319 49.6665 113.152V47.7903C49.6665 45.6234 50.5445 43.5453 52.1073 42.0131C53.6701 40.4809 55.7897 39.6201 57.9998 39.6201ZM62.1665 47.7903C61.0614 47.7903 60.0016 48.2207 59.2202 48.9868C58.4388 49.7529 57.9998 50.792 57.9998 51.8754C57.9998 52.9588 58.4388 53.9979 59.2202 54.764C60.0016 55.5301 61.0614 55.9605 62.1665 55.9605C63.2716 55.9605 64.3314 55.5301 65.1128 54.764C65.8942 53.9979 66.3332 52.9588 66.3332 51.8754C66.3332 50.792 65.8942 49.7529 65.1128 48.9868C64.3314 48.2207 63.2716 47.7903 62.1665 47.7903ZM74.6665 47.7903C73.5614 47.7903 72.5016 48.2207 71.7202 48.9868C70.9388 49.7529 70.4998 50.792 70.4998 51.8754C70.4998 52.9588 70.9388 53.9979 71.7202 54.764C72.5016 55.5301 73.5614 55.9605 74.6665 55.9605C75.7716 55.9605 76.8314 55.5301 77.6128 54.764C78.3942 53.9979 78.8332 52.9588 78.8332 51.8754C78.8332 50.792 78.3942 49.7529 77.6128 48.9868C76.8314 48.2207 75.7716 47.7903 74.6665 47.7903ZM82.9998 64.1307C76.3694 64.1307 70.0106 66.7131 65.3222 71.3097C60.6338 75.9063 57.9998 82.1407 57.9998 88.6413C57.9998 95.1419 60.6338 101.376 65.3222 105.973C70.0106 110.57 76.3694 113.152 82.9998 113.152C89.6302 113.152 95.9891 110.57 100.678 105.973C105.366 101.376 108 95.1419 108 88.6413C108 82.1407 105.366 75.9063 100.678 71.3097C95.9891 66.7131 89.6302 64.1307 82.9998 64.1307Z" fill="black"/>
</svg>
