<svg width="166" height="162" viewBox="0 0 166 162" fill="none" xmlns="http://www.w3.org/2000/svg">
<ellipse cx="82.5688" cy="80.9524" rx="82.5688" ry="80.9524" fill="#347DD2" fill-opacity="0.33"/>
<path d="M84.6178 48.8186L83 48L81.3822 48.8186C77.3134 50.8744 73.6042 53.561 70.3956 56.7764C75.0631 59.1786 79.3171 62.2948 83 66.0094C86.6819 62.2951 90.9346 59.1789 95.6009 56.7764C92.3932 53.5614 88.6852 50.8749 84.6178 48.8186ZM78.3742 71.3919C72.1736 64.9328 64.0596 60.5832 55.1991 58.9687L51 58.2028V86.3798C51 92.7257 52.9317 98.9249 56.5441 104.172C60.1565 109.419 65.2825 113.47 71.256 115.801C69.6092 110.841 68.7726 105.653 68.7778 100.433C68.7778 89.57 72.3369 79.5288 78.3742 71.3919ZM115 58.2063L110.804 58.9687C90.936 62.5734 75.8889 79.7642 75.8889 100.433C75.8889 105.83 76.92 110.998 78.7938 115.751L79.6471 117.912C80.7636 117.947 81.8836 118 83 118C91.4869 118 99.6263 114.669 105.627 108.739C111.629 102.809 115 94.766 115 86.3798V58.2063Z" fill="black"/>
</svg>
