<svg width="99" height="60" viewBox="0 0 99 60" fill="none" xmlns="http://www.w3.org/2000/svg">
<path d="M74.0763 19.4097V15.2431L71.4692 16.6667L67.2979 9.44446L76.4748 4.16669H78.2476C78.6184 5.2778 79.0587 6.25002 79.5686 7.08335C80.0784 7.91669 81.0285 8.33335 82.419 8.33335C83.8094 8.33335 84.7596 7.91669 85.2694 7.08335C85.7792 6.25002 86.2196 5.2778 86.5903 4.16669H88.3632L97.5054 9.47919L93.3688 16.6667L90.7617 15.2431V21.9097L88.5717 23.8195C88.4095 23.9583 88.2241 24.0685 88.0156 24.15C87.807 24.2315 87.5984 24.2718 87.3898 24.2708C87.2508 24.2708 87.0886 24.2246 86.9032 24.132C86.7178 24.0394 86.5324 23.9236 86.347 23.7847L82.6623 20.625C81.9207 19.9769 81.0865 19.5023 80.1595 19.2014C79.2325 18.9005 78.294 18.75 77.3439 18.75C76.7877 18.75 76.2371 18.8023 75.692 18.907C75.1469 19.0116 74.6084 19.1792 74.0763 19.4097ZM72.1992 26.9097L70.3916 24.7917L73.4158 22.2222C73.9488 21.7593 74.5574 21.406 75.2415 21.1625C75.9256 20.919 76.638 20.7977 77.3786 20.7986C78.1202 20.7986 78.827 20.9204 79.499 21.1639C80.1711 21.4074 80.7736 21.7602 81.3066 22.2222L85.3389 25.6597C85.617 25.8912 85.9475 26.0708 86.3303 26.1986C86.7132 26.3264 87.1011 26.3898 87.4941 26.3889C87.9113 26.3889 88.2997 26.331 88.6593 26.2153C89.019 26.0996 89.3374 25.9144 89.6146 25.6597L92.6388 23.0556L94.4464 25.2083L91.4222 27.7778C90.8891 28.2408 90.2866 28.588 89.6146 28.8195C88.9425 29.0509 88.2357 29.1667 87.4941 29.1667C86.7526 29.1667 86.0402 29.0509 85.357 28.8195C84.6738 28.588 84.0653 28.2408 83.5313 27.7778L79.499 24.3403C79.221 24.1088 78.9025 23.9296 78.5438 23.8028C78.1851 23.6759 77.7967 23.6121 77.3786 23.6111C76.9847 23.6111 76.5967 23.675 76.2148 23.8028C75.8329 23.9306 75.5024 24.1097 75.2234 24.3403L72.1992 26.9097Z" fill="url(#paint0_linear_7_81)"/>
<rect x="54.0449" width="5.94753" height="59.8185" fill="#010066"/>
<rect x="32.4526" y="31.9885" width="6.20611" height="27.83" fill="#010066"/>
<rect x="38.6587" y="31.9885" width="5.33142" height="16.5496" transform="rotate(90 38.6587 31.9885)" fill="#010066"/>
<rect x="28.0571" y="49.7954" width="5.94753" height="13.1153" transform="rotate(-180 28.0571 49.7954)" fill="#010066"/>
<rect x="26.6343" y="49.7954" width="5.22478" height="21.5921" transform="rotate(-90 26.6343 49.7954)" fill="#010066"/>
<rect x="48.2266" y="49.7954" width="6.33541" height="17.8069" transform="rotate(180 48.2266 49.7954)" fill="#010066"/>
<rect x="38.6587" y="54.9136" width="5.01153" height="24.3073" transform="rotate(90 38.6587 54.9136)" fill="#010066"/>
<rect x="20.5576" y="59.9251" width="6.20611" height="8.85015" transform="rotate(-180 20.5576 59.9251)" fill="#010066"/>
<rect x="48.2266" y="52.0347" width="4.9049" height="5.94753" transform="rotate(90 48.2266 52.0347)" fill="#010066"/>
<rect x="48.2271" y="23.245" width="4.9049" height="14.8688" transform="rotate(90 48.2271 23.245)" fill="#669934"/>
<rect x="48.2271" y="27.9366" width="6.07682" height="19.9395" transform="rotate(-180 48.2271 27.9366)" fill="#669934"/>
<rect x="48.2271" width="5.11816" height="6.07682" transform="rotate(90 48.2271 0)" fill="#669934"/>
<rect x="14.7397" y="41.9048" width="4.79827" height="14.7395" transform="rotate(90 14.7397 41.9048)" fill="#669934"/>
<rect x="14.7397" y="46.7031" width="5.94753" height="14.1816" transform="rotate(-180 14.7397 46.7031)" fill="#669934"/>
<rect width="5.8695" height="33.787" transform="matrix(0.863242 0.50479 -0.651946 0.758265 30.8193 6.93079)" fill="#669934"/>
<path d="M65.5034 41.7778L69.8714 31.9778H72.1114L76.4934 41.7778H74.1134L70.5294 33.1258H71.4254L67.8274 41.7778H65.5034ZM67.6874 39.6778L68.2894 37.9558H73.3294L73.9454 39.6778H67.6874ZM77.5101 41.7778V31.9778H81.9621C83.0261 31.9778 83.9641 32.1831 84.7761 32.5938C85.5881 32.9951 86.2228 33.5598 86.6801 34.2878C87.1375 35.0158 87.3661 35.8791 87.3661 36.8778C87.3661 37.8671 87.1375 38.7304 86.6801 39.4678C86.2228 40.1958 85.5881 40.7651 84.7761 41.1758C83.9641 41.5771 83.0261 41.7778 81.9621 41.7778H77.5101ZM79.7781 39.9158H81.8501C82.5035 39.9158 83.0681 39.7944 83.5441 39.5518C84.0295 39.2998 84.4028 38.9451 84.6641 38.4878C84.9348 38.0304 85.0701 37.4938 85.0701 36.8778C85.0701 36.2524 84.9348 35.7158 84.6641 35.2678C84.4028 34.8104 84.0295 34.4604 83.5441 34.2178C83.0681 33.9658 82.5035 33.8398 81.8501 33.8398H79.7781V39.9158ZM88.3508 41.7778V40.3078L94.4128 32.9998L94.6928 33.8258H88.4628V31.9778H96.7088V33.4478L90.6608 40.7558L90.3808 39.9298H96.9188V41.7778H88.3508Z" fill="#669934"/>
<path d="M66.7914 58.7778V48.9778H71.2434C72.3074 48.9778 73.2454 49.1831 74.0574 49.5938C74.8694 49.9951 75.5041 50.5598 75.9614 51.2878C76.4187 52.0158 76.6474 52.8791 76.6474 53.8778C76.6474 54.8671 76.4187 55.7304 75.9614 56.4678C75.5041 57.1958 74.8694 57.7651 74.0574 58.1758C73.2454 58.5771 72.3074 58.7778 71.2434 58.7778H66.7914ZM69.0594 56.9158H71.1314C71.7847 56.9158 72.3494 56.7944 72.8254 56.5518C73.3107 56.2998 73.6841 55.9451 73.9454 55.4878C74.2161 55.0304 74.3514 54.4938 74.3514 53.8778C74.3514 53.2524 74.2161 52.7158 73.9454 52.2678C73.6841 51.8104 73.3107 51.4604 72.8254 51.2178C72.3494 50.9658 71.7847 50.8398 71.1314 50.8398H69.0594V56.9158ZM78.3578 58.7778V48.9778H82.5998C83.4771 48.9778 84.2331 49.1224 84.8678 49.4118C85.5025 49.6918 85.9925 50.0978 86.3378 50.6298C86.6831 51.1618 86.8558 51.7964 86.8558 52.5338C86.8558 53.2618 86.6831 53.8918 86.3378 54.4238C85.9925 54.9464 85.5025 55.3478 84.8678 55.6278C84.2331 55.9078 83.4771 56.0478 82.5998 56.0478H79.6178L80.6258 55.0538V58.7778H78.3578ZM84.5878 58.7778L82.1378 55.2218H84.5598L87.0378 58.7778H84.5878ZM80.6258 55.3058L79.6178 54.2418H82.4738C83.1738 54.2418 83.6965 54.0924 84.0418 53.7938C84.3871 53.4858 84.5598 53.0658 84.5598 52.5338C84.5598 51.9924 84.3871 51.5724 84.0418 51.2738C83.6965 50.9751 83.1738 50.8258 82.4738 50.8258H79.6178L80.6258 49.7478V55.3058ZM90.952 58.7778V54.7738L91.47 56.1458L87.158 48.9778H89.566L92.87 54.4798H91.484L94.802 48.9778H97.028L92.716 56.1458L93.22 54.7738V58.7778H90.952Z" fill="#010066"/>
<defs>
<linearGradient id="paint0_linear_7_81" x1="82.4016" y1="4.16669" x2="82.3149" y2="29.1667" gradientUnits="userSpaceOnUse">
<stop offset="0.00931693" stop-color="#669934"/>
<stop offset="1" stop-color="#010066"/>
</linearGradient>
</defs>
</svg>
