<svg width="166" height="162" viewBox="0 0 166 162" fill="none" xmlns="http://www.w3.org/2000/svg">
<ellipse cx="82.5688" cy="80.9524" rx="82.5688" ry="80.9524" fill="#347DD2" fill-opacity="0.33"/>
<path d="M44.8197 99.4236L44.9271 86.1484C44.9665 81.2808 46.6441 77.1138 49.96 73.6475C53.2758 70.1812 57.2422 68.4481 61.8591 68.4481H99.6335L99.6693 64.023C99.6795 62.7693 99.2851 61.719 98.4861 60.8724C97.6871 60.0257 96.6944 59.6009 95.508 59.598H78.7193C77.5302 59.598 76.5306 60.0228 75.7207 60.8724C74.9107 61.722 74.4993 62.7722 74.4864 64.023H66.092C66.1219 60.3355 67.3714 57.201 69.8407 54.6198C72.3099 52.0385 75.2934 50.7478 78.791 50.7478H95.5796C99.0773 50.7478 102.04 52.0385 104.467 54.6198C106.895 57.201 108.094 60.3355 108.064 64.023L107.92 81.7233C109.11 81.7233 110.111 81.2985 110.923 80.4489C111.736 79.5993 112.146 78.549 112.153 77.2982L112.297 59.598C112.327 55.9104 113.576 52.776 116.045 50.1947C118.515 47.6134 121.498 46.3228 124.996 46.3228H129.193L129.121 55.1729H124.924C123.735 55.1729 122.735 55.5977 121.925 56.4473C121.115 57.2969 120.704 58.3471 120.691 59.598L120.548 77.2982C120.518 80.9858 119.268 84.1202 116.799 86.7015C114.33 89.2828 111.346 90.5734 107.849 90.5734L107.777 99.4236H44.8197Z" fill="black"/>
<path d="M104.097 124.712C103.724 124.71 103.357 124.677 103.024 124.617C102.692 124.556 102.403 124.47 102.181 124.364L100.237 123.441C98.3955 122.565 97.1073 121.565 96.4596 120.507C95.8119 119.449 95.8198 118.358 96.4826 117.308L100.101 111.57C100.617 110.754 100.623 109.905 100.119 109.082C99.6153 108.26 98.6129 107.482 97.1798 106.801L95.2384 105.878C95.0505 105.789 94.9142 105.688 94.8375 105.581C94.7608 105.474 94.745 105.362 94.7912 105.254C94.8373 105.145 94.9444 105.041 95.1064 104.947C95.2684 104.854 95.4821 104.773 95.7353 104.708C95.9885 104.644 96.2762 104.598 96.582 104.573C96.8879 104.547 97.2058 104.544 97.5177 104.561C97.8296 104.579 98.1294 104.618 98.3999 104.676C98.6704 104.734 98.9064 104.81 99.0943 104.899L101.038 105.822C102.88 106.698 104.168 107.698 104.815 108.756C105.463 109.813 105.455 110.904 104.793 111.954L101.172 117.692C100.656 118.508 100.65 119.357 101.154 120.18C101.658 121.002 102.66 121.78 104.093 122.461L106.035 123.385C106.3 123.511 106.461 123.66 106.499 123.815C106.537 123.97 106.45 124.126 106.249 124.263C106.048 124.401 105.74 124.516 105.36 124.596C104.98 124.675 104.543 124.715 104.097 124.712ZM92.0921 124.63C91.7193 124.628 91.352 124.595 91.0194 124.535C90.6867 124.474 90.398 124.388 90.1761 124.282L88.2323 123.358C86.3905 122.483 85.1024 121.483 84.4547 120.425C83.807 119.367 83.8148 118.276 84.4777 117.226L88.0964 111.488C88.6122 110.672 88.6183 109.823 88.1143 109C87.6103 108.178 86.6079 107.4 85.1748 106.719L83.2334 105.796C83.0455 105.707 82.9092 105.606 82.8325 105.499C82.7558 105.391 82.74 105.28 82.7862 105.172C82.8323 105.063 82.9394 104.959 83.1014 104.865C83.2634 104.772 83.4771 104.69 83.7303 104.626C83.9835 104.562 84.2712 104.516 84.577 104.491C84.8829 104.465 85.2008 104.461 85.5127 104.479C85.8246 104.497 86.1244 104.536 86.3949 104.594C86.6654 104.652 86.9014 104.727 87.0893 104.817L89.0332 105.74C90.8745 106.616 92.1625 107.616 92.8102 108.673C93.4579 109.731 93.4503 110.822 92.7878 111.872L89.1666 117.61C88.6508 118.426 88.6447 119.275 89.1487 120.098C89.6527 120.92 90.6551 121.698 92.0882 122.379L94.0296 123.303C94.2953 123.429 94.456 123.578 94.494 123.733C94.5319 123.888 94.4455 124.044 94.2444 124.181C94.0433 124.319 93.7354 124.434 93.3553 124.513C92.9752 124.593 92.5378 124.633 92.0921 124.63ZM80.0871 124.548C79.7143 124.546 79.347 124.513 79.0144 124.453C78.6818 124.392 78.393 124.306 78.1711 124.2L76.2273 123.276C74.3855 122.401 73.0974 121.401 72.4497 120.343C71.802 119.285 71.8098 118.194 72.4727 117.144L76.0914 111.406C76.6072 110.589 76.6133 109.741 76.1093 108.918C75.6053 108.095 74.6029 107.317 73.1699 106.637L71.2284 105.714C71.0405 105.625 70.9043 105.524 70.8275 105.416C70.7508 105.309 70.735 105.198 70.7812 105.09C70.8273 104.981 70.9345 104.877 71.0964 104.783C71.2584 104.69 71.4721 104.608 71.7253 104.544C71.9785 104.48 72.2662 104.434 72.572 104.408C72.8779 104.383 73.1958 104.379 73.5077 104.397C73.8196 104.415 74.1194 104.454 74.3899 104.512C74.6604 104.57 74.8964 104.645 75.0843 104.735L77.0258 105.658C78.8676 106.533 80.156 107.534 80.8041 108.591C81.4522 109.649 81.4449 110.74 80.7828 111.789L77.1616 117.527C76.6458 118.344 76.6397 119.193 77.1437 120.015C77.6477 120.838 78.6501 121.616 80.0832 122.297L82.0246 123.22C82.2903 123.347 82.4511 123.496 82.489 123.651C82.5269 123.806 82.4405 123.961 82.2394 124.099C82.0383 124.237 81.7304 124.352 81.3503 124.431C80.9702 124.511 80.5328 124.551 80.0871 124.548ZM68.0821 124.466C67.7093 124.464 67.342 124.431 67.0094 124.37C66.6768 124.31 66.388 124.223 66.1661 124.118L64.2223 123.194C62.3805 122.319 61.0924 121.319 60.4447 120.261C59.797 119.203 59.8048 118.112 60.4677 117.062L64.0864 111.324C64.6019 110.507 64.6078 109.659 64.1038 108.837C63.5998 108.014 62.5976 107.236 61.1649 106.555L59.2234 105.632C59.0355 105.543 58.8993 105.441 58.8225 105.334C58.7458 105.227 58.7301 105.116 58.7762 105.007C58.8223 104.899 58.9295 104.795 59.0915 104.701C59.2535 104.608 59.4671 104.526 59.7203 104.462C59.9735 104.398 60.2612 104.352 60.5671 104.326C60.8729 104.301 61.1908 104.297 61.5027 104.315C61.8147 104.333 62.1144 104.372 62.3849 104.43C62.6555 104.487 62.8914 104.563 63.0793 104.653L65.0232 105.576C66.8646 106.451 68.1526 107.452 68.8003 108.509C69.4479 109.567 69.4403 110.657 68.7778 111.707L65.1566 117.445C64.6408 118.262 64.6347 119.111 65.1387 119.933C65.6427 120.756 66.6451 121.534 68.0782 122.215L70.0196 123.138C70.2853 123.265 70.4461 123.414 70.484 123.569C70.5219 123.724 70.4355 123.879 70.2344 124.017C70.0333 124.155 69.7255 124.27 69.3453 124.349C68.9652 124.429 68.5278 124.469 68.0821 124.466ZM56.0772 124.384C55.7039 124.382 55.3361 124.349 55.0031 124.289C54.67 124.228 54.3809 124.141 54.1587 124.036L52.2173 123.112C50.3756 122.237 49.0874 121.236 48.4397 120.179C47.792 119.121 47.7998 118.03 48.4627 116.98L52.0815 111.242C52.5969 110.425 52.6028 109.577 52.0988 108.754C51.5948 107.932 50.5926 107.154 49.1599 106.473L47.2184 105.55C47.0305 105.46 46.8943 105.359 46.8175 105.252C46.7408 105.145 46.7251 105.034 46.7712 104.925C46.8644 104.706 47.204 104.51 47.7153 104.38C48.2267 104.25 48.8678 104.197 49.4978 104.233C50.1277 104.269 50.6948 104.39 51.0743 104.57L53.0182 105.494C54.8596 106.369 56.1476 107.369 56.7953 108.427C57.443 109.485 57.4353 110.575 56.7728 111.625L53.1516 117.363C52.6358 118.18 52.6297 119.028 53.1337 119.851C53.6378 120.674 54.6401 121.452 56.0732 122.133L58.0147 123.056C58.2803 123.183 58.4411 123.332 58.479 123.487C58.5169 123.642 58.4305 123.797 58.2294 123.935C58.0283 124.073 57.7205 124.188 57.3404 124.267C56.9602 124.346 56.5228 124.387 56.0772 124.384Z" fill="black"/>
</svg>
