<svg width="166" height="162" viewBox="0 0 166 162" fill="none" xmlns="http://www.w3.org/2000/svg">
<ellipse cx="82.5688" cy="80.9524" rx="82.5688" ry="80.9524" fill="#347DD2" fill-opacity="0.33"/>
<path d="M95.1737 79.7492C98.264 82.6918 99.9993 86.6778 99.9993 90.8334C99.9993 94.9889 98.264 98.9749 95.1737 101.918C92.0746 104.852 87.8766 106.499 83.5 106.499C79.1234 106.499 74.9254 104.852 71.8262 101.918L95.1737 79.7492ZM58.75 43.8334H108.25C110.438 43.8334 112.536 44.6587 114.084 46.1277C115.631 47.5967 116.5 49.5892 116.5 51.6667V114.333C116.5 116.411 115.631 118.403 114.084 119.872C112.536 121.341 110.438 122.167 108.25 122.167H58.75C56.562 122.167 54.4635 121.341 52.9164 119.872C51.3692 118.403 50.5 116.411 50.5 114.333V51.6667C50.5 49.5892 51.3692 47.5967 52.9164 46.1277C54.4635 44.6587 56.562 43.8334 58.75 43.8334ZM62.875 51.6667C61.781 51.6667 60.7318 52.0794 59.9582 52.8139C59.1846 53.5484 58.75 54.5446 58.75 55.5834C58.75 56.6221 59.1846 57.6184 59.9582 58.3529C60.7318 59.0874 61.781 59.5 62.875 59.5C63.969 59.5 65.0182 59.0874 65.7918 58.3529C66.5654 57.6184 67 56.6221 67 55.5834C67 54.5446 66.5654 53.5484 65.7918 52.8139C65.0182 52.0794 63.969 51.6667 62.875 51.6667ZM75.25 51.6667C74.156 51.6667 73.1068 52.0794 72.3332 52.8139C71.5596 53.5484 71.125 54.5446 71.125 55.5834C71.125 56.6221 71.5596 57.6184 72.3332 58.3529C73.1068 59.0874 74.156 59.5 75.25 59.5C76.344 59.5 77.3932 59.0874 78.1668 58.3529C78.9404 57.6184 79.375 56.6221 79.375 55.5834C79.375 54.5446 78.9404 53.5484 78.1668 52.8139C77.3932 52.0794 76.344 51.6667 75.25 51.6667ZM83.5 67.3334C76.9359 67.3334 70.6406 69.8093 65.9991 74.2164C61.3576 78.6235 58.75 84.6008 58.75 90.8334C58.75 97.066 61.3576 103.043 65.9991 107.45C70.6406 111.857 76.9359 114.333 83.5 114.333C90.0641 114.333 96.3594 111.857 101.001 107.45C105.642 103.043 108.25 97.066 108.25 90.8334C108.25 84.6008 105.642 78.6235 101.001 74.2164C96.3594 69.8093 90.0641 67.3334 83.5 67.3334Z" fill="black"/>
</svg>
