<svg width="512" height="511" viewBox="0 0 512 511" fill="none" xmlns="http://www.w3.org/2000/svg">
<path d="M256 0C188.127 0.0734097 123.055 27.0683 75.0617 75.0617C27.0683 123.055 0.0734097 188.127 0 256C12.8 595.2 499.2 595.051 512 256C511.927 188.127 484.932 123.055 436.938 75.0617C388.945 27.0683 323.873 0.0734097 256 0ZM256 64C293.886 64.0364 330.917 75.2656 362.442 96.2774C393.967 117.289 418.582 147.147 433.195 182.101L299.179 208.917C269.674 214.805 239.297 214.805 209.792 208.917L78.5707 182.656C93.116 147.563 117.731 117.564 149.308 96.4467C180.886 75.3291 218.012 64.0386 256 64ZM64.128 262.549L131.413 276.011C143.696 278.468 155.286 283.598 165.363 291.039C175.439 298.479 183.754 308.046 189.717 319.061L203.051 343.659C209.782 356.11 213.315 370.038 213.333 384.192V443.136C172.051 433.661 135.051 410.825 108.073 378.173C81.0946 345.521 65.6474 304.878 64.128 262.549ZM298.667 443.221V384.277C298.685 370.123 302.218 356.195 308.949 343.744L322.283 319.147C328.246 308.132 336.561 298.564 346.637 291.124C356.714 283.684 368.304 278.553 380.587 276.096L447.872 262.635C446.353 304.963 430.905 345.606 403.927 378.258C376.949 410.911 339.949 433.746 298.667 443.221Z" fill="url(#paint0_linear_175_5)"/>
<defs>
<linearGradient id="paint0_linear_175_5" x1="256" y1="0" x2="256" y2="510.344" gradientUnits="userSpaceOnUse">
<stop stop-color="#669934"/>
<stop offset="0.35526" stop-color="#669934"/>
<stop offset="0.357617" stop-color="#010066"/>
<stop offset="0.748448" stop-color="#010066"/>
</linearGradient>
</defs>
</svg>
