<svg width="546" height="546" viewBox="0 0 546 546" fill="none" xmlns="http://www.w3.org/2000/svg">
<path d="M546 273C546 423.774 423.774 546 273 546C122.226 546 0 423.774 0 273C0 122.226 122.226 0 273 0C423.774 0 546 122.226 546 273Z" fill="white"/>
<path d="M273 29C208.044 29.0702 145.768 54.8832 99.8364 100.775C53.9052 146.668 28.0703 208.89 28 273.792C40.25 598.141 505.75 597.998 518 273.792C517.93 208.89 492.095 146.668 446.164 100.775C400.232 54.8832 337.956 29.0702 273 29ZM273 90.1979C309.258 90.2328 344.697 100.97 374.868 121.062C405.039 141.154 428.596 169.705 442.581 203.129L314.323 228.77C286.086 234.401 257.014 234.401 228.777 228.77L103.195 203.659C117.115 170.102 140.672 141.417 170.893 121.224C201.114 101.031 236.644 90.2348 273 90.1979ZM89.3725 280.054L153.767 292.926C165.521 295.276 176.614 300.182 186.257 307.296C195.901 314.411 203.859 323.559 209.565 334.092L222.326 357.613C228.768 369.519 232.149 382.837 232.167 396.371V452.735C192.659 443.674 157.248 421.838 131.429 390.616C105.61 359.393 90.8267 320.529 89.3725 280.054ZM313.833 452.816V396.453C313.851 382.918 317.232 369.6 323.674 357.694L336.435 334.174C342.141 323.641 350.099 314.492 359.743 307.378C369.386 300.263 380.479 295.357 392.233 293.008L456.628 280.136C455.173 320.611 440.39 359.475 414.571 390.697C388.752 421.92 353.341 443.756 313.833 452.816Z" fill="url(#paint0_linear_243_6)"/>
<defs>
<linearGradient id="paint0_linear_243_6" x1="273" y1="29" x2="273" y2="517" gradientUnits="userSpaceOnUse">
<stop stop-color="#669934"/>
<stop offset="0.35526" stop-color="#669934"/>
<stop offset="0.357617" stop-color="#010066"/>
<stop offset="0.748448" stop-color="#010066"/>
</linearGradient>
</defs>
</svg>
