<svg width="113" height="137" viewBox="0 0 113 137" fill="none" xmlns="http://www.w3.org/2000/svg">
<rect x="101.014" y="0.503906" width="11.1164" height="135.571" fill="#010066"/>
<rect x="60.6565" y="73.002" width="11.5997" height="63.0733" fill="#010066"/>
<rect x="72.2563" y="73.002" width="12.083" height="30.9325" transform="rotate(90 72.2563 73.002)" fill="#010066"/>
<rect x="52.4402" y="113.359" width="11.1164" height="29.7242" transform="rotate(-180 52.4402 113.359)" fill="#010066"/>
<rect x="49.7817" y="113.359" width="11.8414" height="40.3573" transform="rotate(-90 49.7817 113.359)" fill="#010066"/>
<rect x="90.1392" y="113.359" width="11.8414" height="40.3573" transform="rotate(180 90.1392 113.359)" fill="#010066"/>
<rect x="72.2563" y="124.959" width="11.358" height="45.4321" transform="rotate(90 72.2563 124.959)" fill="#010066"/>
<rect x="38.4238" y="136.316" width="11.5997" height="20.0578" transform="rotate(-180 38.4238 136.316)" fill="#010066"/>
<rect x="90.1392" y="118.435" width="11.1164" height="11.1164" transform="rotate(90 90.1392 118.435)" fill="#010066"/>
<rect x="90.1389" y="53.1855" width="11.1164" height="27.7909" transform="rotate(90 90.1389 53.1855)" fill="#669934"/>
<rect x="90.1392" y="63.8184" width="11.358" height="45.1905" transform="rotate(-180 90.1392 63.8184)" fill="#669934"/>
<rect x="90.1392" y="0.503906" width="11.5997" height="11.358" transform="rotate(90 90.1392 0.503906)" fill="#669934"/>
<rect x="27.5493" y="95.4766" width="10.8747" height="27.5493" transform="rotate(90 27.5493 95.4766)" fill="#669934"/>
<rect x="27.5493" y="106.351" width="11.1164" height="32.1408" transform="rotate(-180 27.5493 106.351)" fill="#669934"/>
<rect x="57.6035" y="16.2119" width="11.6093" height="71.1788" transform="rotate(35.339 57.6035 16.2119)" fill="#669934"/>
</svg>
